# Blender v2.79 (sub 0) OBJ File: ''
# www.blender.org
o Circle
v -0.000004 0.000000 -7.929646
v -0.777245 0.000000 -7.891463
v -1.547001 0.000000 -7.777280
v -2.301859 0.000000 -7.588199
v -3.034548 0.000000 -7.326038
v -3.738013 0.000000 -6.993324
v -4.405479 0.000000 -6.593260
v -5.030518 0.000000 -6.129700
v -5.607110 0.000000 -5.607107
v -6.129703 0.000000 -5.030515
v -6.593263 0.000000 -4.405477
v -6.993327 0.000000 -3.738011
v -7.326041 0.000000 -3.034546
v -7.588202 0.000000 -2.301856
v -7.777284 0.000000 -1.546998
v -7.891466 0.000000 -0.777242
v -7.929649 0.000000 -0.000000
v -7.891466 0.000000 0.777241
v -7.777283 0.000000 1.546997
v -7.588201 0.000000 2.301855
v -7.326040 0.000000 3.034544
v -6.993326 0.000000 3.738009
v -6.593262 0.000000 4.405476
v -6.129701 0.000000 5.030515
v -5.607108 0.000000 5.607107
v -5.030514 0.000000 6.129700
v -4.405475 0.000000 6.593260
v -3.738009 0.000000 6.993323
v -3.034543 0.000000 7.326037
v -2.301854 0.000000 7.588197
v -1.546996 0.000000 7.777279
v -0.777239 0.000000 7.891460
v 0.000002 0.000000 7.929644
v 0.777244 0.000000 7.891460
v 1.547000 0.000000 7.777277
v 2.301857 0.000000 7.588193
v 3.034547 0.000000 7.326032
v 3.738011 0.000000 6.993318
v 4.405477 0.000000 6.593253
v 5.030516 0.000000 6.129692
v 5.607108 0.000000 5.607098
v 6.129699 0.000000 5.030507
v 6.593258 0.000000 4.405469
v 6.993320 0.000000 3.738003
v 7.326034 0.000000 3.034539
v 7.588193 0.000000 2.301852
v 7.777275 0.000000 1.546996
v 7.891458 0.000000 0.777241
v 7.929641 0.000000 0.000002
v 7.891458 0.000000 -0.777238
v 7.777276 0.000000 -1.546992
v 7.588195 0.000000 -2.301848
v 7.326036 0.000000 -3.034536
v 6.993324 0.000000 -3.738001
v 6.593262 0.000000 -4.405466
v 6.129704 0.000000 -5.030504
v 5.607114 0.000000 -5.607096
v 5.030523 0.000000 -6.129688
v 4.405487 0.000000 -6.593249
v 3.738023 0.000000 -6.993314
v 3.034560 0.000000 -7.326030
v 2.301873 0.000000 -7.588192
v 1.547018 0.000000 -7.777275
v 0.777264 0.000000 -7.891460
v -0.000007 0.000000 -13.776701
v -1.350360 0.000000 -13.710361
v -2.687708 0.000000 -13.511984
v -3.999172 0.000000 -13.183480
v -5.272122 0.000000 -12.728011
v -6.494298 0.000000 -12.149964
v -7.653931 0.000000 -11.454907
v -8.739853 0.000000 -10.649533
v -9.741605 0.000000 -9.741598
v -10.649539 0.000000 -8.739847
v -11.454914 0.000000 -7.653927
v -12.149970 0.000000 -6.494294
v -12.728017 0.000000 -5.272118
v -13.183487 0.000000 -3.999167
v -13.511992 0.000000 -2.687703
v -13.710367 0.000000 -1.350354
v -13.776706 0.000000 -0.000001
v -13.710367 0.000000 1.350352
v -13.511991 0.000000 2.687701
v -13.183484 0.000000 3.999165
v -12.728016 0.000000 5.272115
v -12.149969 0.000000 6.494291
v -11.454911 0.000000 7.653924
v -10.649536 0.000000 8.739846
v -9.741600 0.000000 9.741599
v -8.739846 0.000000 10.649534
v -7.653924 0.000000 11.454907
v -6.494291 0.000000 12.149964
v -5.272113 0.000000 12.728011
v -3.999163 0.000000 13.183478
v -2.687698 0.000000 13.511982
v -1.350349 0.000000 13.710358
v 0.000004 0.000000 13.776695
v 1.350357 0.000000 13.710358
v 2.687705 0.000000 13.511978
v 3.999169 0.000000 13.183472
v 5.272119 0.000000 12.728002
v 6.494294 0.000000 12.149954
v 7.653927 0.000000 11.454895
v 8.739847 0.000000 10.649520
v 9.741599 0.000000 9.741584
v 10.649531 0.000000 8.739833
v 11.454903 0.000000 7.653913
v 12.149958 0.000000 6.494280
v 12.728003 0.000000 5.272106
v 13.183470 0.000000 3.999159
v 13.511973 0.000000 2.687698
v 13.710352 0.000000 1.350353
v 13.776690 0.000000 0.000003
v 13.710353 0.000000 -1.350347
v 13.511976 0.000000 -2.687692
v 13.183475 0.000000 -3.999154
v 12.728007 0.000000 -5.272102
v 12.149964 0.000000 -6.494277
v 11.454911 0.000000 -7.653908
v 10.649539 0.000000 -8.739828
v 9.741610 0.000000 -9.741578
v 8.739860 0.000000 -10.649513
v 7.653944 0.000000 -11.454889
v 6.494315 0.000000 -12.149948
v 5.272142 0.000000 -12.727997
v 3.999197 0.000000 -13.183469
v 2.687737 0.000000 -13.511975
v 1.350392 0.000000 -13.710356
v -8.551199 0.000000 0.120013
v 0.034845 0.000000 0.120013
v -8.551199 0.000000 -0.120013
v 0.034845 0.000000 -0.120013
v 4.379535 0.000000 7.345549
v 0.086512 0.000000 -0.090183
v 4.171665 0.000000 7.465562
v -0.121357 0.000000 0.029830
v 4.171664 0.000000 -7.465563
v -0.121357 0.000000 -0.029830
v 4.379533 0.000000 -7.345550
v 0.086512 0.000000 0.090183
vn 0.0000 1.0000 0.0000
s off
f 25//1 24//1 88//1 89//1
f 52//1 51//1 115//1 116//1
f 26//1 25//1 89//1 90//1
f 53//1 52//1 116//1 117//1
f 27//1 26//1 90//1 91//1
f 54//1 53//1 117//1 118//1
f 28//1 27//1 91//1 92//1
f 2//1 1//1 65//1 66//1
f 55//1 54//1 118//1 119//1
f 29//1 28//1 92//1 93//1
f 3//1 2//1 66//1 67//1
f 56//1 55//1 119//1 120//1
f 30//1 29//1 93//1 94//1
f 4//1 3//1 67//1 68//1
f 57//1 56//1 120//1 121//1
f 31//1 30//1 94//1 95//1
f 5//1 4//1 68//1 69//1
f 58//1 57//1 121//1 122//1
f 32//1 31//1 95//1 96//1
f 6//1 5//1 69//1 70//1
f 59//1 58//1 122//1 123//1
f 33//1 32//1 96//1 97//1
f 7//1 6//1 70//1 71//1
f 60//1 59//1 123//1 124//1
f 34//1 33//1 97//1 98//1
f 8//1 7//1 71//1 72//1
f 61//1 60//1 124//1 125//1
f 35//1 34//1 98//1 99//1
f 9//1 8//1 72//1 73//1
f 62//1 61//1 125//1 126//1
f 36//1 35//1 99//1 100//1
f 10//1 9//1 73//1 74//1
f 63//1 62//1 126//1 127//1
f 37//1 36//1 100//1 101//1
f 11//1 10//1 74//1 75//1
f 64//1 63//1 127//1 128//1
f 38//1 37//1 101//1 102//1
f 12//1 11//1 75//1 76//1
f 1//1 64//1 128//1 65//1
f 39//1 38//1 102//1 103//1
f 13//1 12//1 76//1 77//1
f 40//1 39//1 103//1 104//1
f 14//1 13//1 77//1 78//1
f 41//1 40//1 104//1 105//1
f 15//1 14//1 78//1 79//1
f 42//1 41//1 105//1 106//1
f 16//1 15//1 79//1 80//1
f 43//1 42//1 106//1 107//1
f 17//1 16//1 80//1 81//1
f 44//1 43//1 107//1 108//1
f 18//1 17//1 81//1 82//1
f 45//1 44//1 108//1 109//1
f 19//1 18//1 82//1 83//1
f 46//1 45//1 109//1 110//1
f 20//1 19//1 83//1 84//1
f 47//1 46//1 110//1 111//1
f 21//1 20//1 84//1 85//1
f 48//1 47//1 111//1 112//1
f 22//1 21//1 85//1 86//1
f 49//1 48//1 112//1 113//1
f 23//1 22//1 86//1 87//1
f 50//1 49//1 113//1 114//1
f 24//1 23//1 87//1 88//1
f 51//1 50//1 114//1 115//1
f 129//1 130//1 132//1 131//1
f 133//1 134//1 136//1 135//1
f 137//1 138//1 140//1 139//1
