# Blender v2.79 (sub 0) OBJ File: ''
# www.blender.org
o Cylinder
v 0.000000 -0.238850 -1.000000
v 0.000000 0.238850 -1.000000
v 0.195090 -0.238850 -0.980785
v 0.195090 0.238850 -0.980785
v 0.382683 -0.238850 -0.923880
v 0.382683 0.238850 -0.923880
v 0.555570 -0.238850 -0.831470
v 0.555570 0.238850 -0.831470
v 0.707107 -0.238850 -0.707107
v 0.707107 0.238850 -0.707107
v 0.831470 -0.238850 -0.555570
v 0.831470 0.238850 -0.555570
v 0.923880 -0.238850 -0.382683
v 0.923880 0.238850 -0.382683
v 0.980785 -0.238850 -0.195090
v 0.980785 0.238850 -0.195090
v 1.000000 -0.238850 -0.000000
v 1.000000 0.238850 -0.000000
v 0.980785 -0.238850 0.195090
v 0.980785 0.238850 0.195090
v 0.923880 -0.238850 0.382683
v 0.923880 0.238850 0.382683
v 0.831470 -0.238850 0.555570
v 0.831470 0.238850 0.555570
v 0.707107 -0.238850 0.707107
v 0.707107 0.238850 0.707107
v 0.555570 -0.238850 0.831470
v 0.555570 0.238850 0.831470
v 0.382683 -0.238850 0.923880
v 0.382683 0.238850 0.923880
v 0.195090 -0.238850 0.980785
v 0.195090 0.238850 0.980785
v -0.000000 -0.238850 1.000000
v -0.000000 0.238850 1.000000
v -0.195091 -0.238850 0.980785
v -0.195091 0.238850 0.980785
v -0.382684 -0.238850 0.923879
v -0.382684 0.238850 0.923879
v -0.555571 -0.238850 0.831469
v -0.555571 0.238850 0.831469
v -0.707107 -0.238850 0.707106
v -0.707107 0.238850 0.707106
v -0.831470 -0.238850 0.555570
v -0.831470 0.238850 0.555570
v -0.923880 -0.238850 0.382683
v -0.923880 0.238850 0.382683
v -0.980785 -0.238850 0.195089
v -0.980785 0.238850 0.195089
v -1.000000 -0.238850 -0.000001
v -1.000000 0.238850 -0.000001
v -0.980785 -0.238850 -0.195091
v -0.980785 0.238850 -0.195091
v -0.923879 -0.238850 -0.382684
v -0.923879 0.238850 -0.382684
v -0.831469 -0.238850 -0.555571
v -0.831469 0.238850 -0.555571
v -0.707106 -0.238850 -0.707108
v -0.707106 0.238850 -0.707108
v -0.555569 -0.238850 -0.831470
v -0.555569 0.238850 -0.831470
v -0.382682 -0.238850 -0.923880
v -0.382682 0.238850 -0.923880
v -0.195089 -0.238850 -0.980786
v -0.195089 0.238850 -0.980786
v -7.262124 -0.052057 0.701070
v -1.756339 -0.137425 1.053693
v -7.262124 -0.052057 -0.701070
v -1.756339 -0.137425 -1.053693
v -0.211218 -0.024125 0.482768
v -0.211218 -0.024125 -0.482768
v 4.238208 -0.052057 5.938648
v 1.790695 -0.137425 0.994188
v 3.023917 -0.052057 6.639719
v -0.034355 -0.137425 2.047881
v 0.523699 -0.024125 -0.058464
v -0.312481 -0.024125 0.424304
v 3.023916 -0.052057 -6.639720
v -0.034356 -0.137425 -2.047881
v 4.238207 -0.052057 -5.938649
v 1.790695 -0.137425 -0.994188
v -0.312481 -0.024125 -0.424304
v 0.523699 -0.024125 0.058464
v -7.262124 0.028400 0.701070
v -1.756339 0.113768 1.053693
v -7.262124 0.028400 -0.701070
v -1.756339 0.113768 -1.053693
v -0.211218 0.000468 0.482768
v -0.211218 0.000468 -0.482768
v 4.238208 0.028400 5.938648
v 1.790695 0.113768 0.994188
v 3.023917 0.028400 6.639719
v -0.034355 0.113768 2.047881
v 0.523699 0.000468 -0.058464
v -0.312481 0.000468 0.424304
v 3.023916 0.028400 -6.639720
v -0.034356 0.113768 -2.047881
v 4.238207 0.028400 -5.938649
v 1.790695 0.113768 -0.994188
v -0.312481 0.000468 -0.424304
v 0.523699 0.000468 0.058464
vn 0.0980 0.0000 -0.9952
vn 0.2903 0.0000 -0.9569
vn 0.4714 0.0000 -0.8819
vn 0.6344 0.0000 -0.7730
vn 0.7730 0.0000 -0.6344
vn 0.8819 0.0000 -0.4714
vn 0.9569 0.0000 -0.2903
vn 0.9952 0.0000 -0.0980
vn 0.9952 0.0000 0.0980
vn 0.9569 0.0000 0.2903
vn 0.8819 0.0000 0.4714
vn 0.7730 0.0000 0.6344
vn 0.6344 0.0000 0.7730
vn 0.4714 0.0000 0.8819
vn 0.2903 0.0000 0.9569
vn 0.0980 0.0000 0.9952
vn -0.0980 0.0000 0.9952
vn -0.2903 0.0000 0.9569
vn -0.4714 0.0000 0.8819
vn -0.6344 0.0000 0.7730
vn -0.7730 0.0000 0.6344
vn -0.8819 0.0000 0.4714
vn -0.9569 0.0000 0.2903
vn -0.9952 0.0000 0.0980
vn -0.9952 0.0000 -0.0980
vn -0.9569 0.0000 -0.2903
vn -0.8819 0.0000 -0.4714
vn -0.7730 0.0000 -0.6344
vn -0.6344 0.0000 -0.7730
vn -0.4714 0.0000 -0.8819
vn 0.0000 1.0000 -0.0000
vn -0.2903 0.0000 -0.9569
vn -0.0980 0.0000 -0.9952
vn 0.0000 -1.0000 -0.0000
vn -0.0155 -0.9999 0.0000
vn 0.0731 -0.9973 0.0000
vn 0.0078 -0.9999 0.0134
vn -0.0366 -0.9973 -0.0633
vn 0.0078 -0.9999 -0.0134
vn -0.0366 -0.9973 0.0633
vn -0.0155 0.9999 0.0000
vn 0.0731 0.9973 0.0000
vn 0.0078 0.9999 0.0134
vn -0.0366 0.9973 -0.0633
vn 0.0078 0.9999 -0.0134
vn -0.0366 0.9973 0.0633
vn -0.8323 0.0000 -0.5543
vn 0.8962 0.0000 -0.4436
vn -0.0639 0.0000 0.9980
vn 0.8962 0.0000 0.4436
vn -0.8323 0.0000 0.5543
vn -0.0639 0.0000 -0.9980
vn -0.5000 0.0000 0.8660
vn -0.5000 0.0000 -0.8660
vn 1.0000 0.0000 0.0000
vn -0.9856 0.0000 -0.1688
vn 0.6390 0.0000 -0.7692
vn 0.3466 0.0000 0.9380
vn 0.6390 0.0000 0.7692
vn -0.9856 0.0000 0.1688
vn 0.3466 0.0000 -0.9380
vn 0.5000 0.0000 -0.8660
vn 0.5000 0.0000 0.8660
vn -1.0000 0.0000 0.0000
s off
f 1//1 2//1 4//1 3//1
f 3//2 4//2 6//2 5//2
f 5//3 6//3 8//3 7//3
f 7//4 8//4 10//4 9//4
f 9//5 10//5 12//5 11//5
f 11//6 12//6 14//6 13//6
f 13//7 14//7 16//7 15//7
f 15//8 16//8 18//8 17//8
f 17//9 18//9 20//9 19//9
f 19//10 20//10 22//10 21//10
f 21//11 22//11 24//11 23//11
f 23//12 24//12 26//12 25//12
f 25//13 26//13 28//13 27//13
f 27//14 28//14 30//14 29//14
f 29//15 30//15 32//15 31//15
f 31//16 32//16 34//16 33//16
f 33//17 34//17 36//17 35//17
f 35//18 36//18 38//18 37//18
f 37//19 38//19 40//19 39//19
f 39//20 40//20 42//20 41//20
f 41//21 42//21 44//21 43//21
f 43//22 44//22 46//22 45//22
f 45//23 46//23 48//23 47//23
f 47//24 48//24 50//24 49//24
f 49//25 50//25 52//25 51//25
f 51//26 52//26 54//26 53//26
f 53//27 54//27 56//27 55//27
f 55//28 56//28 58//28 57//28
f 57//29 58//29 60//29 59//29
f 59//30 60//30 62//30 61//30
f 4//31 2//31 64//31 62//31 60//31 58//31 56//31 54//31 52//31 50//31 48//31 46//31 44//31 42//31 40//31 38//31 36//31 34//31 32//31 30//31 28//31 26//31 24//31 22//31 20//31 18//31 16//31 14//31 12//31 10//31 8//31 6//31
f 61//32 62//32 64//32 63//32
f 63//33 64//33 2//33 1//33
f 1//34 3//34 5//34 7//34 9//34 11//34 13//34 15//34 17//34 19//34 21//34 23//34 25//34 27//34 29//34 31//34 33//34 35//34 37//34 39//34 41//34 43//34 45//34 47//34 49//34 51//34 53//34 55//34 57//34 59//34 61//34 63//34
f 65//35 67//35 68//35 66//35
f 68//36 70//36 69//36 66//36
f 71//37 73//37 74//37 72//37
f 74//38 76//38 75//38 72//38
f 77//39 79//39 80//39 78//39
f 80//40 82//40 81//40 78//40
f 83//41 84//41 86//41 85//41
f 86//42 84//42 87//42 88//42
f 89//43 90//43 92//43 91//43
f 92//44 90//44 93//44 94//44
f 95//45 96//45 98//45 97//45
f 98//46 96//46 99//46 100//46
f 77//47 78//47 96//47 95//47
f 71//48 72//48 90//48 89//48
f 65//49 66//49 84//49 83//49
f 80//50 79//50 97//50 98//50
f 74//51 73//51 91//51 92//51
f 68//52 67//52 85//52 86//52
f 81//53 82//53 100//53 99//53
f 75//54 76//54 94//54 93//54
f 69//55 70//55 88//55 87//55
f 78//56 81//56 99//56 96//56
f 72//57 75//57 93//57 90//57
f 66//58 69//58 87//58 84//58
f 82//59 80//59 98//59 100//59
f 76//60 74//60 92//60 94//60
f 70//61 68//61 86//61 88//61
f 79//62 77//62 95//62 97//62
f 73//63 71//63 89//63 91//63
f 67//64 65//64 83//64 85//64
