# Blender v2.79 (sub 0) OBJ File: 'Conveyor Belts.blend'
# www.blender.org
o Cube.003_Cube.009
v 2.000000 0.000000 -2.000000
v 2.000000 0.000000 2.000000
v -2.000000 0.000000 2.000000
v -1.999999 0.000000 -2.000001
v 2.000001 0.595798 -1.999999
v 1.999999 1.000000 2.000001
v -2.000001 1.000000 1.999999
v -2.000000 0.595798 -2.000000
v 2.188085 0.000000 -2.000000
v 2.188085 0.000000 2.000000
v 2.188086 0.595798 -1.999999
v 2.188083 1.000000 2.000001
v -2.188085 0.000000 2.000000
v -2.188084 0.000000 -2.000001
v -2.188085 1.000000 1.999999
v -2.188084 0.595798 -2.000000
v 2.000001 0.746117 -1.999999
v 1.999999 1.125932 2.000001
v -2.000001 1.125932 1.999999
v -2.000000 0.746117 -2.000000
v 2.188086 0.746117 -1.999999
v 2.188083 1.125932 2.000001
v -2.188085 1.125932 1.999999
v -2.188084 0.746117 -2.000000
v -2.000000 1.000000 -1.500000
v -2.188084 0.000000 -1.500001
v -2.188085 1.000000 -1.500000
v -2.000000 1.125932 -1.500000
v -2.188085 1.125932 -1.500000
v 2.000001 1.000000 -1.499999
v 2.188085 0.000000 -1.500000
v 2.188085 1.000000 -1.499999
v 2.000001 1.125932 -1.499999
v 2.188085 1.125932 -1.499999
v 2.000001 0.667487 -1.999999
v 2.188086 0.667487 -1.999999
v 2.188083 1.062966 2.000001
v 1.999999 1.062966 2.000001
v 2.000001 1.062966 -1.499999
v 2.188085 1.062966 -1.499999
v -2.188084 0.667487 -2.000000
v -2.000000 0.667487 -2.000000
v -2.000001 1.062966 1.999999
v -2.188085 1.062966 1.999999
v -2.188085 1.062966 -1.500000
v -2.000000 1.062966 -1.500000
v 2.000000 0.000000 -2.179355
v 2.000001 0.595798 -2.179354
v -1.999999 0.000000 -2.179356
v -2.000000 0.595798 -2.179355
v 2.188085 0.000000 -2.179355
v 2.188086 0.595798 -2.179354
v -2.188084 0.000000 -2.179356
v -2.188084 0.595798 -2.179355
v 2.000001 0.746117 -2.179354
v 2.188086 0.746117 -2.179354
v -2.000000 0.746117 -2.179355
v -2.188084 0.746117 -2.179355
v -2.188084 0.667487 -2.179355
v -2.000000 0.667487 -2.179355
v 2.000001 0.667487 -2.179354
v 2.188086 0.667487 -2.179354
vt 0.874950 0.874924
vt 0.874950 0.749949
vt 0.375050 0.749949
vt 0.375050 0.874924
vt 0.117396 0.744562
vt 0.117396 0.820093
vt 0.103189 0.820093
vt 0.103189 0.744562
vt 0.874950 0.250100
vt 0.874950 0.125125
vt 0.375050 0.125125
vt 0.375050 0.250100
vt 0.874950 0.312587
vt 0.375050 0.312587
vt 0.375050 0.749999
vt 0.874950 0.749999
vt 0.235760 0.470689
vt 0.160229 0.470689
vt 0.160229 0.432924
vt 0.235760 0.432924
vt 0.128138 0.372031
vt 0.125381 0.372031
vt 0.125381 0.365741
vt 0.128138 0.365741
vt 0.122867 0.372031
vt 0.122867 0.365741
vt 0.140005 0.372031
vt 0.137491 0.372031
vt 0.137491 0.365741
vt 0.140005 0.365741
vt 0.136510 0.820093
vt 0.136510 0.744561
vt 0.150717 0.744561
vt 0.150717 0.820093
vt 0.136510 0.470689
vt 0.136510 0.432924
vt 0.150717 0.432924
vt 0.150717 0.470689
vt 0.136511 0.735049
vt 0.150717 0.735049
vt 0.131755 0.470689
vt 0.131755 0.432924
vt 0.098433 0.470690
vt 0.098433 0.432925
vt 0.103189 0.432925
vt 0.103189 0.470690
vt 0.150717 0.739805
vt 0.136511 0.739805
vt 0.117396 0.739806
vt 0.103189 0.739806
vt 0.103189 0.735050
vt 0.117396 0.735050
vt 0.098434 0.735050
vt 0.122152 0.470690
vt 0.122152 0.735050
vt 0.117396 0.470690
vt 0.131754 0.735049
vt 0.160229 0.735049
vt 0.235760 0.735049
vt 0.018146 0.470690
vt 0.093678 0.470690
vt 0.093678 0.735050
vt 0.018147 0.735050
vt 0.155473 0.432924
vt 0.155473 0.470689
vt 0.122152 0.432925
vt 0.117396 0.432925
vt 0.018146 0.432925
vt 0.093678 0.432925
vt 0.155473 0.735049
vt 0.126908 0.432925
vt 0.126908 0.470690
vt 0.126908 0.735050
vt 0.101975 0.372030
vt 0.101975 0.365741
vt 0.126998 0.735049
vt 0.126999 0.470689
vt 0.126999 0.432924
vt 0.134734 0.372031
vt 0.134734 0.365741
vt 0.134734 0.339578
vt 0.134734 0.360470
vt 0.128138 0.360470
vt 0.128138 0.339578
vt 0.128138 0.362984
vt 0.134734 0.362984
vt 0.128138 0.392940
vt 0.128138 0.372048
vt 0.134734 0.372048
vt 0.134734 0.392940
vt 0.128138 0.395454
vt 0.134734 0.395454
vt 0.134734 0.398211
vt 0.128138 0.398211
vt 0.134734 0.404500
vt 0.128138 0.404500
vt 0.122867 0.404500
vt 0.101975 0.404500
vt 0.101975 0.398211
vt 0.122867 0.398211
vt 0.160897 0.404500
vt 0.140005 0.404500
vt 0.140005 0.398211
vt 0.160897 0.398211
vt 0.137491 0.404500
vt 0.137491 0.398211
vt 0.125381 0.404500
vt 0.125381 0.398211
vt 0.160897 0.372030
vt 0.160897 0.365741
vn -0.0000 -0.0000 1.0000
vn 0.0000 0.0000 -1.0000
vn 0.0000 1.0000 0.0000
vn -1.0000 -0.0000 -0.0000
vn 1.0000 0.0000 0.0000
vn 0.0000 0.7963 -0.6049
vn 0.0000 0.7777 -0.6287
s off
f 2/1/1 6/2/1 7/3/1 3/4/1
f 6/5/1 2/6/1 10/7/1 12/8/1
f 5/9/2 1/10/2 4/11/2 8/12/2
f 30/13/3 25/14/3 7/15/3 6/16/3
f 26/17/4 27/18/4 16/19/4 14/20/4
f 21/21/5 36/22/5 62/23/5 56/24/5
f 36/22/5 11/25/5 52/26/5 62/23/5
f 5/27/4 35/28/4 61/29/4 48/30/4
f 3/31/1 7/32/1 15/33/1 13/34/1
f 28/35/6 20/36/6 24/37/6 29/38/6
f 19/39/3 28/35/3 29/38/3 23/40/3
f 46/41/5 42/42/5 20/36/5 28/35/5
f 40/43/5 36/44/5 21/45/5 34/46/5
f 44/47/1 43/48/1 19/39/1 23/40/1
f 38/49/1 37/50/1 22/51/1 18/52/1
f 37/53/5 40/43/5 34/46/5 22/51/5
f 39/54/4 38/55/4 18/52/4 33/56/4
f 43/57/5 46/41/5 28/35/5 19/39/5
f 33/56/3 18/52/3 22/51/3 34/46/3
f 15/58/4 27/18/4 26/17/4 13/59/4
f 31/60/5 32/61/5 12/62/5 10/63/5
f 41/64/4 45/65/4 29/38/4 24/37/4
f 35/66/4 39/54/4 33/56/4 17/67/4
f 17/67/6 33/56/6 34/46/6 21/45/6
f 9/68/5 11/69/5 32/61/5 31/60/5
f 5/9/7 8/12/7 25/14/7 30/13/7
f 45/65/4 44/70/4 23/40/4 29/38/4
f 5/71/4 30/72/4 39/54/4 35/66/4
f 30/72/4 6/73/4 38/55/4 39/54/4
f 12/62/5 32/61/5 40/43/5 37/53/5
f 6/5/1 12/8/1 37/50/1 38/49/1
f 32/61/5 11/69/5 36/44/5 40/43/5
f 11/25/5 9/74/5 51/75/5 52/26/5
f 27/18/4 15/58/4 44/70/4 45/65/4
f 16/19/4 27/18/4 45/65/4 41/64/4
f 7/76/5 25/77/5 46/41/5 43/57/5
f 15/33/1 7/32/1 43/48/1 44/47/1
f 25/77/5 8/78/5 42/42/5 46/41/5
f 35/28/4 17/79/4 55/80/4 61/29/4
f 47/81/2 48/82/2 52/83/2 51/84/2
f 62/85/2 61/86/2 55/80/2 56/24/2
f 50/87/2 49/88/2 53/89/2 54/90/2
f 60/91/2 59/92/2 58/93/2 57/94/2
f 52/83/2 48/82/2 61/86/2 62/85/2
f 50/87/2 54/90/2 59/92/2 60/91/2
f 17/79/3 21/21/3 56/24/3 55/80/3
f 24/95/3 20/96/3 57/94/3 58/93/3
f 8/97/5 4/98/5 49/99/5 50/100/5
f 14/101/4 16/102/4 54/103/4 53/104/4
f 16/102/4 41/105/4 59/106/4 54/103/4
f 41/105/4 24/95/4 58/93/4 59/106/4
f 20/96/5 42/107/5 60/108/5 57/94/5
f 42/107/5 8/97/5 50/100/5 60/108/5
f 1/109/4 5/27/4 48/30/4 47/110/4
