# Blender v2.78 (sub 0) OBJ File: 'pillar.blend'
# www.blender.org
mtllib pillar.mtl
o Cube_Cube.001
v -1.000000 -1.000000 1.000000
v -1.000000 1.000000 1.000000
v 1.000000 -1.000000 1.000000
v 1.000000 1.000000 1.000000
v -1.000000 9.681387 1.000000
v 1.000000 9.681387 1.000000
v 1.000000 6.057409 1.000000
v -1.000000 4.554314 1.000000
v -0.333333 -1.000000 1.000000
v 0.333333 -1.000000 1.000000
v 0.333333 1.000000 1.000000
v -0.333333 1.000000 1.000000
v 0.333333 9.681387 1.000000
v -0.333333 9.681387 1.000000
v -0.333333 1.000000 0.886978
v 0.333333 1.000000 0.886978
v 0.333333 5.556377 1.000000
v -0.333333 5.055346 1.000000
v 0.333333 9.681387 0.886978
v -0.333333 9.681387 0.886978
v 0.333333 5.556377 0.886978
v -0.333333 5.055346 0.886978
v -1.000000 -1.000000 0.333333
v -1.000000 -1.000000 0.666667
v 1.000000 1.000000 0.333333
v 1.000000 1.000000 0.666667
v -1.000000 1.000000 0.666667
v -1.000000 1.000000 0.333333
v 1.000000 -1.000000 0.666667
v 1.000000 -1.000000 0.333333
v 1.000000 6.057409 0.333333
v 1.000000 6.057409 0.666667
v -1.000000 4.554314 0.666667
v -1.000000 4.554314 0.333333
v -0.333333 -1.000000 0.333333
v -0.333333 -1.000000 0.666667
v 0.333333 -1.000000 0.333333
v 0.333333 -1.000000 0.666667
v 1.000000 5.291710 1.000000
v 1.000000 1.836931 1.000000
v 0.333333 2.519934 0.886978
v 0.333333 4.038726 0.886978
v 0.333333 2.519934 1.000000
v 0.333333 4.038726 1.000000
v 1.000000 1.836931 0.666667
v 1.000000 5.445812 0.666667
v 1.000000 1.998178 0.333333
v 1.000000 5.445812 0.333333
v 1.000000 5.291710 1.169634
v 1.000000 1.836931 1.169634
v 0.333333 2.519934 1.169634
v 0.333333 4.038726 1.169634
v 1.181284 5.291710 1.000000
v 1.181284 1.836931 1.000000
v 1.181284 1.836931 0.666667
v 1.181284 5.445812 0.666667
v 1.181284 1.998178 0.333333
v 1.181284 5.445812 0.333333
v -0.333333 9.681387 1.156972
v -1.058259 9.681380 1.134709
v -1.058259 4.554307 1.134709
v 1.058425 9.681387 1.091846
v 1.058425 6.057409 1.091846
v -0.333333 5.055346 1.156972
v 0.333333 9.681387 1.156972
v 0.333333 5.556377 1.156972
v -1.000000 0.879712 1.000000
v 1.000000 0.879712 1.000000
v 0.333333 0.879712 1.000000
v -0.333333 0.879712 1.000000
v -1.000000 0.879712 0.666667
v -1.000000 0.879712 0.333333
v 1.000000 0.879712 0.333333
v 1.000000 0.879712 0.666667
v -1.233501 -1.000000 0.666667
v -1.233501 -1.000000 1.000000
v -1.233501 -1.000000 0.333333
v -1.233501 0.638285 0.666667
v -1.233501 0.638285 0.333333
v -1.233501 0.638285 1.000000
v 1.000000 0.638285 1.234056
v 1.000000 -1.000000 1.234056
v 0.333333 -1.000000 1.234056
v -1.000000 -1.000000 1.234056
v -0.333333 -1.000000 1.234056
v 0.333333 0.638285 1.234056
v -0.333333 0.638285 1.234056
v -1.000000 0.638285 1.234056
v 1.208036 0.638285 1.000000
v 1.208036 -1.000000 1.000000
v 1.208036 -1.000000 0.333333
v 1.208036 -1.000000 0.666667
v 1.208036 0.638285 0.333333
v 1.208036 0.638285 0.666667
v -1.000000 2.184772 1.000000
v -1.000000 3.369543 1.000000
v -0.333333 2.351782 0.886978
v -0.333333 3.703564 0.886978
v -0.333333 2.351782 1.000000
v -0.333333 3.703564 1.000000
v -1.000000 2.184772 0.333333
v -1.000000 3.369543 0.333333
v -1.000000 2.184772 0.666667
v -1.000000 3.369543 0.666667
v -1.087444 2.184772 1.000000
v -1.087444 3.323279 1.000000
v -1.087444 2.184772 0.333333
v -1.087444 3.323279 0.333333
v -1.087444 2.184772 0.666667
v -1.087444 3.323279 0.666667
v -1.000000 2.184772 1.059212
v -1.000000 3.369543 1.059212
v -0.333333 2.351782 1.059212
v -0.333333 3.703564 1.059212
v -1.000000 -1.000000 -1.000000
v -1.000000 1.000000 -1.000000
v 1.000000 -1.000000 -1.000000
v 1.000000 1.000000 -1.000000
v -1.000000 9.681387 -1.000000
v 1.000000 9.681387 -1.000000
v -1.000000 -1.000000 0.000000
v -1.000000 1.000000 0.000000
v 1.000000 -1.000000 0.000000
v 1.000000 1.000000 0.000000
v -1.000000 9.681387 0.000000
v 1.000000 9.681387 0.000000
v 1.000000 6.057409 -1.000000
v -1.000000 4.554314 -1.000000
v -1.000000 4.554314 0.000000
v 1.000000 6.057409 0.000000
v -2.080937 4.165251 0.000000
v -1.965623 9.681387 0.000000
v 1.345524 6.220094 0.000000
v 1.228674 9.680672 0.000000
v -0.333333 -1.000000 -1.000000
v 0.333333 -1.000000 -1.000000
v 0.333333 1.000000 -1.000000
v -0.333333 1.000000 -1.000000
v 0.333333 9.681387 -1.000000
v -0.333333 9.681387 -1.000000
v -0.333333 1.000000 -0.886978
v 0.333333 1.000000 -0.886978
v 0.333333 -1.000000 0.000000
v -0.333333 -1.000000 0.000000
v 0.333333 5.556377 -1.000000
v -0.333333 5.055346 -1.000000
v 0.333333 9.681387 -0.886978
v -0.333333 9.681387 -0.886978
v 0.333333 5.556377 -0.886978
v -0.333333 5.055346 -0.886978
v -1.000000 -1.000000 -0.333333
v -1.000000 -1.000000 -0.666667
v 1.000000 1.000000 -0.333333
v 1.000000 1.000000 -0.666667
v -1.000000 1.000000 -0.666667
v -1.000000 1.000000 -0.333333
v 1.000000 -1.000000 -0.666667
v 1.000000 -1.000000 -0.333333
v 1.000000 6.057409 -0.333333
v 1.000000 6.057409 -0.666667
v -1.000000 4.554314 -0.666667
v -1.000000 4.554314 -0.333333
v -0.333333 -1.000000 -0.333333
v -0.333333 -1.000000 -0.666667
v 0.333333 -1.000000 -0.333333
v 0.333333 -1.000000 -0.666667
v 1.000000 5.291710 -1.000000
v 1.000000 1.836931 -1.000000
v 1.000000 1.998178 0.000000
v 1.000000 5.445812 0.000000
v 0.333333 2.519934 -0.886978
v 0.333333 4.038726 -0.886978
v 0.333333 2.519934 -1.000000
v 0.333333 4.038726 -1.000000
v 1.000000 1.836931 -0.666667
v 1.000000 5.445812 -0.666667
v 1.000000 1.998178 -0.333333
v 1.000000 5.445812 -0.333333
v 1.000000 5.291710 -1.169634
v 1.000000 1.836931 -1.169634
v 0.333333 2.519934 -1.169634
v 0.333333 4.038726 -1.169634
v 1.181284 5.291710 -1.000000
v 1.181284 1.836931 -1.000000
v 1.181284 1.998178 0.000000
v 1.181284 5.445812 0.000000
v 1.181284 1.836931 -0.666667
v 1.181284 5.445812 -0.666667
v 1.181284 1.998178 -0.333333
v 1.181284 5.445812 -0.333333
v -0.333333 9.681387 -1.156972
v -1.058259 9.681380 -1.134709
v -1.058259 4.554307 -1.134709
v 1.058425 9.681387 -1.091846
v 1.058425 6.057409 -1.091846
v -0.333333 5.055346 -1.156972
v 0.333333 9.681387 -1.156972
v 0.333333 5.556377 -1.156972
v 1.345524 9.680672 0.000000
v -2.082142 9.681374 0.000000
v -1.000000 0.879712 -1.000000
v 1.000000 0.879712 -1.000000
v 1.000000 0.879712 0.000000
v -1.000000 0.879712 0.000000
v 0.333333 0.879712 -1.000000
v -0.333333 0.879712 -1.000000
v -1.000000 0.879712 -0.666667
v -1.000000 0.879712 -0.333333
v 1.000000 0.879712 -0.333333
v 1.000000 0.879712 -0.666667
v -1.233501 -1.000000 -0.666667
v -1.233501 -1.000000 -1.000000
v -1.233501 0.638285 0.000000
v -1.233501 -1.000000 0.000000
v -1.233501 -1.000000 -0.333333
v -1.233501 0.638285 -0.666667
v -1.233501 0.638285 -0.333333
v -1.233501 0.638285 -1.000000
v 1.000000 0.638285 -1.234056
v 1.000000 -1.000000 -1.234056
v 0.333333 -1.000000 -1.234056
v -1.000000 -1.000000 -1.234056
v -0.333333 -1.000000 -1.234056
v 0.333333 0.638285 -1.234056
v -0.333333 0.638285 -1.234056
v -1.000000 0.638285 -1.234056
v 1.208036 0.638285 -1.000000
v 1.208036 -1.000000 -1.000000
v 1.208036 -1.000000 -0.333333
v 1.208036 -1.000000 0.000000
v 1.208036 0.638285 0.000000
v 1.208036 -1.000000 -0.666667
v 1.208036 0.638285 -0.333333
v 1.208036 0.638285 -0.666667
v -1.000000 2.184772 -1.000000
v -1.000000 3.369543 -1.000000
v -1.000000 2.184772 0.000000
v -1.000000 3.369543 0.000000
v -0.333333 2.351782 -0.886978
v -0.333333 3.703564 -0.886978
v -0.333333 2.351782 -1.000000
v -0.333333 3.703564 -1.000000
v -1.000000 2.184772 -0.333333
v -1.000000 3.369543 -0.333333
v -1.000000 2.184772 -0.666667
v -1.000000 3.369543 -0.666667
v -1.087444 2.184772 -1.000000
v -1.087444 3.323279 -1.000000
v -1.087444 2.184772 0.000000
v -1.087444 3.323279 0.000000
v -1.087444 2.184772 -0.333333
v -1.087444 3.323279 -0.333333
v -1.087444 2.184772 -0.666667
v -1.087444 3.323279 -0.666667
v -1.000000 2.184772 -1.059212
v -1.000000 3.369543 -1.059212
v -0.333333 2.351782 -1.059212
v -0.333333 3.703564 -1.059212
vn 1.0000 0.0000 0.0000
vn 0.0000 0.0000 1.0000
vn 0.0000 -1.0000 0.0000
vn -1.0000 0.0000 0.0000
vn 0.3387 -0.9409 0.0000
vn 0.4260 -0.9047 0.0000
vn 0.0000 1.0000 0.0000
vn 0.0003 1.0000 -0.0006
vn 0.0031 1.0000 0.0000
vn 0.5748 -0.8071 -0.1350
vn -0.8828 0.4697 0.0000
vn -0.7156 -0.6985 0.0000
vn 0.0000 -0.9002 -0.4355
vn 0.0000 0.9077 0.4196
vn 0.6833 0.0000 0.7302
vn 0.0895 0.0000 0.9960
vn -0.0307 0.0000 0.9995
vn 0.5792 -0.8069 0.1157
vn -0.7426 -0.0001 0.6697
vn 0.2476 -0.9629 0.1070
vn -0.0001 1.0000 0.0001
vn 0.9671 0.0000 0.2543
vn 0.1626 -0.9813 -0.1034
vn 0.7576 0.6528 0.0000
vn 0.0000 0.6961 0.7180
vn -0.7188 0.6952 0.0000
vn -0.5841 0.5650 0.5828
vn 0.6284 0.5415 0.5585
vn 0.7474 0.0000 0.6643
vn -0.7079 0.0000 0.7063
vn -0.4676 0.8839 0.0000
vn -0.4480 0.8941 0.0000
vn 0.2430 -0.9700 0.0000
vn -0.5607 0.0000 0.8280
vn 0.0000 0.0000 -1.0000
vn 0.0003 1.0000 0.0006
vn 0.5748 -0.8071 0.1350
vn 0.0000 -0.9002 0.4355
vn 0.0000 0.9077 -0.4196
vn 0.6833 0.0000 -0.7302
vn 0.0895 0.0000 -0.9960
vn -0.0307 0.0000 -0.9995
vn 0.5792 -0.8069 -0.1157
vn -0.7426 -0.0001 -0.6697
vn 0.2476 -0.9629 -0.1070
vn -0.0001 1.0000 -0.0001
vn 0.9671 0.0000 -0.2543
vn 0.1626 -0.9813 0.1034
vn 0.0000 0.6961 -0.7180
vn -0.5841 0.5650 -0.5828
vn 0.6284 0.5415 -0.5585
vn 0.7474 0.0000 -0.6643
vn -0.7079 0.0000 -0.7063
vn -0.5607 0.0000 -0.8280
usemtl None
s off
f 74//1 26//1 4//1 68//1
f 70//2 12//2 2//2 67//2
f 38//3 29//3 3//3 10//3
f 17//4 13//4 19//4 21//4
f 72//4 28//4 122//4 204//4
f 48//1 170//1 130//1 31//1
f 44//2 39//2 7//2 17//2
f 104//4 96//4 8//4 33//4
f 129//5 34//5 33//5 8//5 131//5
f 7//6 32//6 31//6 130//6 133//6
f 125//7 132//7 5//7
f 134//8 6//8 62//8 199//8
f 6//9 134//9 126//9
f 96//2 100//2 18//2 8//2
f 17//10 7//10 63//10 66//10
f 99//1 12//1 15//1 97//1
f 14//1 18//1 22//1 20//1
f 24//3 36//3 9//3 1//3
f 36//3 38//3 10//3 9//3
f 68//2 4//2 11//2 69//2
f 69//2 11//2 12//2 70//2
f 12//7 11//7 16//7 15//7
f 44//4 17//4 21//4 42//4
f 26//1 25//1 47//1 45//1
f 19//2 20//2 22//2 98//2 97//2 15//2 16//2 41//2 42//2 21//2
f 144//3 143//3 37//3 35//3
f 35//3 37//3 38//3 36//3
f 121//3 144//3 35//3 23//3
f 23//3 35//3 36//3 24//3
f 238//4 102//4 34//4 129//4
f 102//4 104//4 33//4 34//4
f 39//1 46//1 32//1 7//1
f 46//1 48//1 31//1 32//1
f 67//4 2//4 27//4 71//4
f 71//4 27//4 28//4 72//4
f 143//3 123//3 30//3 37//3
f 37//3 30//3 29//3 38//3
f 203//1 124//1 25//1 73//1
f 73//1 25//1 26//1 74//1
f 125//7 20//7 19//7 126//7
f 125//7 5//7 20//7
f 14//7 20//7 5//7
f 13//7 6//7 19//7
f 6//7 126//7 19//7
f 40//3 54//3 50//3
f 4//1 26//1 45//1 40//1
f 11//4 43//4 41//4 16//4
f 43//4 44//4 42//4 41//4
f 11//2 4//2 40//2 43//2
f 49//7 53//7 39//7
f 25//1 124//1 169//1 47//1
f 40//3 45//3 55//3 54//3
f 51//2 50//2 49//2 52//2
f 39//11 44//11 52//11 49//11
f 44//4 43//4 51//4 52//4
f 43//12 40//12 50//12 51//12
f 55//1 57//1 58//1 56//1
f 54//1 55//1 56//1 53//1
f 57//1 185//1 186//1 58//1
f 45//13 47//13 57//13 55//13
f 170//7 48//7 58//7 186//7
f 46//14 39//14 53//14 56//14
f 48//7 46//7 56//7 58//7
f 47//3 169//3 185//3 57//3
f 49//15 50//15 54//15 53//15
f 66//16 63//16 62//16 65//16
f 61//17 64//17 59//17 60//17
f 14//7 5//7 60//7 59//7
f 6//7 13//7 65//7 62//7
f 18//1 14//1 59//1 64//1
f 8//18 18//18 64//18 61//18
f 13//4 17//4 66//4 65//4
f 60//19 200//19 131//19 61//19
f 131//20 8//20 61//20
f 5//21 132//21 200//21 60//21
f 133//22 199//22 62//22 63//22
f 7//23 133//23 63//23
f 73//24 74//24 94//24 93//24
f 24//3 1//3 76//3 75//3
f 70//25 67//25 88//25 87//25
f 9//3 10//3 83//3 85//3
f 67//26 71//26 78//26 80//26
f 69//25 70//25 87//25 86//25
f 29//3 30//3 91//3 92//3
f 75//4 78//4 79//4 77//4
f 76//4 80//4 78//4 75//4
f 77//4 79//4 213//4 214//4
f 121//3 23//3 77//3 214//3
f 72//26 204//26 213//26 79//26
f 71//26 72//26 79//26 78//26
f 23//3 24//3 75//3 77//3
f 83//2 86//2 87//2 85//2
f 82//2 81//2 86//2 83//2
f 85//2 87//2 88//2 84//2
f 68//25 69//25 86//25 81//25
f 1//3 9//3 85//3 84//3
f 10//3 3//3 82//3 83//3
f 91//1 93//1 94//1 92//1
f 230//1 231//1 93//1 91//1
f 92//1 94//1 89//1 90//1
f 30//3 123//3 230//3 91//3
f 3//3 29//3 92//3 90//3
f 203//24 73//24 93//24 231//24
f 74//24 68//24 89//24 94//24
f 67//27 80//27 88//27
f 68//28 81//28 89//28
f 76//3 1//3 84//3
f 3//3 90//3 82//3
f 82//29 90//29 89//29 81//29
f 80//30 76//30 84//30 88//30
f 28//4 27//4 103//4 101//4
f 96//31 104//31 110//31 106//31
f 122//4 28//4 101//4 237//4
f 101//3 103//3 109//3 107//3
f 18//1 100//1 98//1 22//1
f 100//1 99//1 97//1 98//1
f 2//2 12//2 99//2 95//2
f 27//4 2//4 95//4 103//4
f 107//4 109//4 110//4 108//4
f 249//4 107//4 108//4 250//4
f 109//4 105//4 106//4 110//4
f 102//31 238//31 250//31 108//31
f 104//31 102//31 108//31 110//31
f 103//3 95//3 105//3 109//3
f 237//3 101//3 107//3 249//3
f 111//2 113//2 114//2 112//2
f 100//32 96//32 112//32 114//32
f 99//1 100//1 114//1 113//1
f 95//33 99//33 113//33 111//33
f 112//34 106//34 105//34 111//34
f 96//31 106//31 112//31
f 105//3 95//3 111//3
f 210//1 202//1 118//1 154//1
f 206//35 201//35 116//35 138//35
f 166//3 136//3 117//3 157//3
f 145//4 149//4 147//4 139//4
f 208//4 204//4 122//4 156//4
f 178//1 159//1 130//1 170//1
f 174//35 145//35 127//35 167//35
f 246//4 161//4 128//4 236//4
f 129//5 131//5 128//5 161//5 162//5
f 127//6 133//6 130//6 159//6 160//6
f 125//7 119//7 132//7
f 134//36 199//36 194//36 120//36
f 120//9 126//9 134//9
f 236//35 128//35 146//35 242//35
f 145//37 198//37 195//37 127//37
f 241//1 239//1 141//1 138//1
f 140//1 148//1 150//1 146//1
f 152//3 115//3 135//3 164//3
f 164//3 135//3 136//3 166//3
f 202//35 205//35 137//35 118//35
f 205//35 206//35 138//35 137//35
f 138//7 141//7 142//7 137//7
f 174//4 172//4 149//4 145//4
f 154//1 175//1 177//1 153//1
f 147//35 149//35 172//35 171//35 142//35 141//35 239//35 240//35 150//35 148//35
f 144//3 163//3 165//3 143//3
f 163//3 164//3 166//3 165//3
f 121//3 151//3 163//3 144//3
f 151//3 152//3 164//3 163//3
f 238//4 129//4 162//4 244//4
f 244//4 162//4 161//4 246//4
f 167//1 127//1 160//1 176//1
f 176//1 160//1 159//1 178//1
f 201//4 207//4 155//4 116//4
f 207//4 208//4 156//4 155//4
f 143//3 165//3 158//3 123//3
f 165//3 166//3 157//3 158//3
f 203//1 209//1 153//1 124//1
f 209//1 210//1 154//1 153//1
f 125//7 126//7 147//7 148//7
f 125//7 148//7 119//7
f 140//7 119//7 148//7
f 139//7 147//7 120//7
f 120//7 147//7 126//7
f 168//3 180//3 184//3
f 118//1 168//1 175//1 154//1
f 169//2 185//2 186//2 170//2
f 137//4 142//4 171//4 173//4
f 173//4 171//4 172//4 174//4
f 137//35 173//35 168//35 118//35
f 179//7 167//7 183//7
f 153//1 177//1 169//1 124//1
f 168//3 184//3 187//3 175//3
f 181//35 182//35 179//35 180//35
f 167//11 179//11 182//11 174//11
f 174//4 182//4 181//4 173//4
f 173//12 181//12 180//12 168//12
f 187//1 188//1 190//1 189//1
f 184//1 183//1 188//1 187//1
f 189//1 190//1 186//1 185//1
f 175//38 187//38 189//38 177//38
f 170//7 186//7 190//7 178//7
f 176//39 188//39 183//39 167//39
f 178//7 190//7 188//7 176//7
f 177//3 189//3 185//3 169//3
f 179//40 183//40 184//40 180//40
f 198//41 197//41 194//41 195//41
f 193//42 192//42 191//42 196//42
f 140//7 191//7 192//7 119//7
f 120//7 194//7 197//7 139//7
f 146//1 196//1 191//1 140//1
f 128//43 193//43 196//43 146//43
f 139//4 197//4 198//4 145//4
f 192//44 193//44 131//44 200//44
f 131//45 193//45 128//45
f 119//46 192//46 200//46 132//46
f 133//47 195//47 194//47 199//47
f 127//48 195//48 133//48
f 209//24 233//24 234//24 210//24
f 152//3 211//3 212//3 115//3
f 206//49 225//49 226//49 201//49
f 135//3 223//3 221//3 136//3
f 201//26 218//26 216//26 207//26
f 205//49 224//49 225//49 206//49
f 157//3 232//3 229//3 158//3
f 211//4 215//4 217//4 216//4
f 212//4 211//4 216//4 218//4
f 215//4 214//4 213//4 217//4
f 121//3 214//3 215//3 151//3
f 208//26 217//26 213//26 204//26
f 207//26 216//26 217//26 208//26
f 151//3 215//3 211//3 152//3
f 221//35 223//35 225//35 224//35
f 220//35 221//35 224//35 219//35
f 223//35 222//35 226//35 225//35
f 202//49 219//49 224//49 205//49
f 115//3 222//3 223//3 135//3
f 136//3 221//3 220//3 117//3
f 229//1 232//1 234//1 233//1
f 230//1 229//1 233//1 231//1
f 232//1 228//1 227//1 234//1
f 158//3 229//3 230//3 123//3
f 117//3 228//3 232//3 157//3
f 203//24 231//24 233//24 209//24
f 210//24 234//24 227//24 202//24
f 201//50 226//50 218//50
f 202//51 227//51 219//51
f 212//3 222//3 115//3
f 117//3 220//3 228//3
f 220//52 219//52 227//52 228//52
f 218//53 226//53 222//53 212//53
f 156//4 243//4 245//4 155//4
f 236//31 248//31 254//31 246//31
f 122//4 237//4 243//4 156//4
f 243//3 251//3 253//3 245//3
f 146//1 150//1 240//1 242//1
f 242//1 240//1 239//1 241//1
f 116//35 235//35 241//35 138//35
f 155//4 245//4 235//4 116//4
f 251//4 252//4 254//4 253//4
f 249//4 250//4 252//4 251//4
f 253//4 254//4 248//4 247//4
f 244//31 252//31 250//31 238//31
f 246//31 254//31 252//31 244//31
f 245//3 253//3 247//3 235//3
f 237//3 249//3 251//3 243//3
f 255//35 256//35 258//35 257//35
f 242//32 258//32 256//32 236//32
f 241//1 257//1 258//1 242//1
f 235//33 255//33 257//33 241//33
f 256//54 255//54 247//54 248//54
f 236//31 256//31 248//31
f 247//3 255//3 235//3
