# Blender v2.79 (sub 0) OBJ File: ''
# www.blender.org
o Cylinder.001
v -1.292453 1.269662 -1.745359
v -1.292453 1.395899 -1.650303
v -1.089961 1.269662 -1.745359
v -1.089961 1.395899 -1.650303
v -1.089961 0.195985 -0.319482
v -1.089961 0.322222 -0.224426
v -1.089961 0.100929 -0.193245
v -1.089961 0.227166 -0.098189
v -1.292453 0.322222 -0.224426
v -1.292453 0.195985 -0.319482
v -1.217126 0.244276 -0.120912
v -1.217126 0.118039 -0.215968
v 1.292453 1.269662 -1.745359
v 1.292453 1.395899 -1.650303
v 1.089961 1.269662 -1.745359
v 1.089961 1.395899 -1.650303
v 1.089961 0.195985 -0.319482
v 1.089961 0.322222 -0.224426
v 1.089961 0.100929 -0.193245
v 1.089961 0.227166 -0.098189
v 0.000000 0.322222 -0.224426
v 0.000000 0.195985 -0.319482
v 0.000000 0.227166 -0.098189
v 0.000000 0.100929 -0.193245
v 1.292453 0.322222 -0.224426
v 1.292453 0.195985 -0.319482
v 1.217126 0.244276 -0.120912
v 1.217126 0.118039 -0.215968
vn 0.0000 -0.7989 -0.6015
vn 1.0000 -0.0000 0.0000
vn -1.0000 0.0000 0.0000
vn 0.0000 0.6015 -0.7989
vn 0.0000 0.7989 0.6015
vn 0.0000 -0.6015 0.7989
vn -0.2183 -0.5870 0.7796
vn -0.8645 -0.3023 0.4015
vn 0.2183 -0.5870 0.7796
vn 0.8645 -0.3023 0.4015
s off
f 5//1 10//1 1//1 3//1
f 6//2 5//2 3//2 4//2
f 10//3 9//3 2//3 1//3
f 1//4 2//4 4//4 3//4
f 21//5 6//5 8//5 23//5
f 10//1 5//1 7//1 12//1
f 24//6 23//6 8//6 7//6
f 9//5 6//5 4//5 2//5
f 6//5 9//5 11//5 8//5
f 5//1 22//1 24//1 7//1
f 7//7 8//7 11//7 12//7
f 5//4 6//4 21//4 22//4
f 12//8 11//8 9//8 10//8
f 17//1 15//1 13//1 26//1
f 18//3 16//3 15//3 17//3
f 26//2 13//2 14//2 25//2
f 13//4 15//4 16//4 14//4
f 21//5 23//5 20//5 18//5
f 26//1 28//1 19//1 17//1
f 24//6 19//6 20//6 23//6
f 25//5 14//5 16//5 18//5
f 18//5 20//5 27//5 25//5
f 17//1 19//1 24//1 22//1
f 19//9 28//9 27//9 20//9
f 22//3 24//3 23//3 21//3
f 17//4 22//4 21//4 18//4
f 28//10 26//10 25//10 27//10
